<?xml version="1.0" encoding="UTF-8" standalone="no"?>
<!-- Created with Inkscape (http://www.inkscape.org/) -->

<svg
   width="30"
   height="40"
   viewBox="0 0 7.937499 10.583332"
   version="1.1"
   id="svgReset"
   xml:space="preserve"
   xmlns="http://www.w3.org/2000/svg"
   xmlns:svg="http://www.w3.org/2000/svg"><defs
     id="defs1" /><g
     id="layer1"><g
       id="g8"
       transform="matrix(0.86428508,0,0,0.86948687,0.12987501,0.26781472)"><g
         id="g5"
         transform="matrix(0.96680806,0,0,1,6.3392896,0.88264492)"><path
           style="fill:#422461;fill-opacity:1;stroke:#fcc602;stroke-width:0;stroke-dasharray:none;stroke-opacity:1"
           d="m -6.2767095,3.3279529 c 0,0 0.8466794,0.3311049 0.9204293,0.033087 C -5.0837237,2.259658 -3.9496222,1.189858 -2.8074567,0.83264996 -1.8390233,0.529776 -0.73376159,0.94336156 0.19003776,1.3631123 0.43590344,1.4748274 1.0882152,1.9109955 0.82111301,1.8711632 -1.5041688,1.5243999 -2.6589162,1.8599556 -2.8732347,1.9407714 c -0.2204807,0.08314 -1.8633681,1.1090997 -1.6159898,1.903912 0.075835,0.2436542 0.7391175,0.1994252 0.7391175,0.1994252 l -1.5390572,0.929832 z"
           id="path2" /><path
           style="fill:#c799f4;fill-opacity:0.643137;stroke:#fcc602;stroke-width:0;stroke-dasharray:none;stroke-opacity:1"
           d="M 0.85749047,1.8259564 C 1.3124672,2.1838057 1.5421572,2.5369066 1.6033012,2.9951021 1.7059701,3.7644726 0.98895808,3.7030488 0.82473632,3.3454575 -0.14879757,1.225597 -4.0043065,2.4639095 -2.9021632,1.9450333 -2.1165253,1.5751642 -0.15851851,1.0268427 0.85749047,1.8259564 Z"
           id="path3" /></g><g
         id="g7"
         transform="matrix(-0.96680806,0,0,-1,2.5547567,9.8380551)"><path
           style="fill:#422461;fill-opacity:1;stroke:#fcc602;stroke-width:0;stroke-dasharray:none;stroke-opacity:1"
           d="m -6.2767095,3.3279529 c 0,0 0.8466794,0.3311049 0.9204293,0.033087 C -5.0837237,2.259658 -3.9496222,1.189858 -2.8074567,0.83264996 -1.8390233,0.529776 -0.73376159,0.94336156 0.19003776,1.3631123 0.43590344,1.4748274 1.0882152,1.9109955 0.82111301,1.8711632 -1.5041688,1.5243999 -2.6589162,1.8599556 -2.8732347,1.9407714 c -0.2204807,0.08314 -1.8633681,1.1090997 -1.6159898,1.903912 0.075835,0.2436542 0.7391175,0.1994252 0.7391175,0.1994252 l -1.5390572,0.929832 z"
           id="path6" /><path
           style="fill:#c799f4;fill-opacity:0.643137;stroke:#fcc602;stroke-width:0;stroke-dasharray:none;stroke-opacity:1"
           d="M 0.85749047,1.8259564 C 1.3124672,2.1838057 1.5421572,2.5369066 1.6033012,2.9951021 1.7059701,3.7644726 0.98895808,3.7030488 0.82473632,3.3454575 -0.14879757,1.225597 -4.0043065,2.4639095 -2.9021632,1.9450333 -2.1165253,1.5751642 -0.15851851,1.0268427 0.85749047,1.8259564 Z"
           id="path7" /></g></g></g></svg>
